<?xml version="1.0" standalone="no"?>
<!DOCTYPE svg PUBLIC "-//W3C//DTD SVG 20010904//EN"
 "http://www.w3.org/TR/2001/REC-SVG-20010904/DTD/svg10.dtd">
<svg version="1.0" xmlns="http://www.w3.org/2000/svg"
 width="401.000000pt" height="253.000000pt" viewBox="0 0 401.000000 253.000000"
 preserveAspectRatio="xMidYMid meet">

<g transform="translate(0.000000,253.000000) scale(0.100000,-0.100000)"
fill="#000000" stroke="none">
<path d="M1060 2114 c-71 -14 -177 -47 -218 -68 -185 -94 -323 -272 -384 -496
-20 -75 -23 -108 -23 -280 0 -155 4 -208 18 -260 43 -160 110 -279 213 -384
83 -83 168 -136 279 -173 74 -25 93 -27 250 -27 148 -1 180 2 249 22 102 30
223 93 286 149 l50 45 0 314 0 314 -280 0 -281 0 3 -122 3 -123 105 -2 c165
-4 151 10 148 -151 l-3 -137 -58 -23 c-133 -53 -308 -51 -426 3 -101 47 -197
179 -237 325 -25 92 -26 358 -1 450 42 159 124 268 245 327 l76 38 136 0 c133
0 137 -1 202 -33 l67 -33 28 -119 28 -120 118 0 117 0 0 175 0 174 -62 51
c-73 58 -196 122 -283 145 -59 16 -313 29 -365 19z"/>
<path d="M1940 1991 c0 -121 -5 -113 75 -125 22 -4 52 -9 68 -12 l27 -6 0
-579 c0 -455 -3 -580 -12 -584 -7 -2 -46 -9 -85 -15 l-73 -12 0 -109 0 -109
325 0 325 0 0 109 0 109 -67 12 c-38 6 -76 14 -85 17 -16 4 -18 23 -18 224 l0
219 335 0 335 0 0 -219 c0 -201 -2 -220 -17 -225 -10 -2 -51 -10 -90 -16 l-73
-12 0 -109 0 -109 330 0 330 0 0 109 0 109 -72 12 c-40 6 -81 14 -90 16 -17 5
-18 41 -18 583 l0 578 63 12 c34 6 74 14 90 17 l27 6 0 109 0 109 -330 0 -330
0 0 -109 0 -110 53 -10 c28 -6 69 -13 90 -17 l37 -6 0 -229 0 -229 -335 0
-335 0 0 229 0 229 28 6 c15 3 45 8 67 12 80 12 75 4 75 125 l0 109 -325 0
-325 0 0 -109z"/>
</g>
</svg>
